<?xml version="1.0" encoding="UTF-8" standalone="no"?>
<!-- Created with Inkscape (http://www.inkscape.org/) -->

<svg
   xmlns:osb="http://www.openswatchbook.org/uri/2009/osb"
   xmlns:dc="http://purl.org/dc/elements/1.1/"
   xmlns:cc="http://creativecommons.org/ns#"
   xmlns:rdf="http://www.w3.org/1999/02/22-rdf-syntax-ns#"
   xmlns:svg="http://www.w3.org/2000/svg"
   xmlns="http://www.w3.org/2000/svg"
   xmlns:sodipodi="http://sodipodi.sourceforge.net/DTD/sodipodi-0.dtd"
   xmlns:inkscape="http://www.inkscape.org/namespaces/inkscape"
   width="297mm"
   height="210mm"
   viewBox="0 0 1052.3622 744.09448"
   id="svg2"
   version="1.1"
   inkscape:version="0.91 r13725"
   sodipodi:docname="logo_josvic.svg">
  <defs
     id="defs4">
    <linearGradient
       id="linearGradient4206"
       osb:paint="solid">
      <stop
         style="stop-color:#0a1ddb;stop-opacity:1;"
         offset="0"
         id="stop4208" />
    </linearGradient>
  </defs>
  <sodipodi:namedview
     id="base"
     pagecolor="#ffffff"
     bordercolor="#666666"
     borderopacity="1.0"
     inkscape:pageopacity="0.0"
     inkscape:pageshadow="2"
     inkscape:zoom="0.49497475"
     inkscape:cx="474.00956"
     inkscape:cy="397.4966"
     inkscape:document-units="px"
     inkscape:current-layer="layer1"
     showgrid="false"
     inkscape:snap-bbox="true"
     inkscape:snap-global="true"
     inkscape:window-width="1366"
     inkscape:window-height="705"
     inkscape:window-x="-8"
     inkscape:window-y="-8"
     inkscape:window-maximized="1"
     borderlayer="true" />
  <metadata
     id="metadata7">
    <rdf:RDF>
      <cc:Work
         rdf:about="">
        <dc:format>image/svg+xml</dc:format>
        <dc:type
           rdf:resource="http://purl.org/dc/dcmitype/StillImage" />
        <dc:title></dc:title>
      </cc:Work>
    </rdf:RDF>
  </metadata>
  <g
     inkscape:groupmode="layer"
     id="layer2"
     inkscape:label="Capa 2"
     transform="translate(0,-308.26772)" />
  <g
     inkscape:label="Capa 1"
     inkscape:groupmode="layer"
     id="layer1"
     transform="translate(0,-308.26772)">
    <g
       id="g5687"
       transform="matrix(5.3246243,0,0,7.1675426,-341.70972,-216.71174)">
      <rect
         y="73.790771"
         x="65"
         height="102.85714"
         width="197.14285"
         id="rect3370"
         style="opacity:0.19200003;fill:#2b0000;fill-opacity:1" />
      <path
         inkscape:connector-curvature="0"
         id="path3394"
         d="m 87.129126,160.7226 c -2.057679,-4.99891 -2.158988,-5.57984 -1.078517,-6.1845 0.655866,-0.36704 2.54026,-1.90969 4.187543,-3.4281 4.252206,-3.91954 4.584822,-5.92813 4.584822,-27.68654 l 0,-18.61227 -4.690991,0 c -4.135831,0 -4.646129,-0.14794 -4.311913,-1.25 0.208494,-0.6875 0.714746,-2.85715 1.125006,-4.821432 1.589714,-7.611405 0.320673,-6.785714 10.429269,-6.785714 l 8.952725,0 -0.25549,28.392856 c -0.28046,31.16877 -0.27865,31.15464 -4.74464,37.02891 -2.417825,3.18024 -9.527692,8.80589 -11.179675,8.84587 -0.410926,0.01 -1.769088,-2.46464 -3.018139,-5.49908 z"
         style="fill:#000080" />
      <path
         inkscape:connector-curvature="0"
         id="path3396"
         d="m 87.25725,161.07157 c -1.142423,-2.8425 -2.160569,-5.3428 -2.262546,-5.55623 -0.101977,-0.21343 0.733727,-0.93101 1.857121,-1.59461 3.537322,-2.08955 6.378001,-5.55804 7.188641,-8.77738 0.467626,-1.85711 0.782508,-10.59722 0.782508,-21.71989 l 0,-18.61227 -4.690991,0 c -4.135831,0 -4.646129,-0.14794 -4.311913,-1.25 0.208494,-0.6875 0.714746,-2.85715 1.125006,-4.821432 1.589565,-7.610688 0.326215,-6.785714 10.391507,-6.785714 l 8.914967,0 0,26.635646 c 0,29.70547 -0.32436,32.44551 -4.53518,38.31198 -2.213247,3.08347 -9.907724,9.26025 -11.601977,9.31355 -0.429005,0.0135 -1.71472,-2.30115 -2.857143,-5.14365 z"
         style="fill:#000080" />
      <text
         transform="scale(0.88890711,1.1249769)"
         sodipodi:linespacing="125%"
         id="text3336"
         y="134.07155"
         x="95.376175"
         style="font-style:normal;font-variant:normal;font-weight:500;font-stretch:normal;font-size:64.19532776px;line-height:125%;font-family:Revue;-inkscape-font-specification:'Revue Medium';letter-spacing:0px;word-spacing:0px;opacity:0.597;fill-opacity:0.90506329;fill-rule:evenodd;stroke:none;stroke-width:1px;stroke-linecap:butt;stroke-linejoin:miter;stroke-opacity:1"
         xml:space="preserve"><tspan
           style="fill-opacity:0.90506329;fill-rule:evenodd"
           y="134.07155"
           x="95.376175"
           id="tspan3338"
           sodipodi:role="line">Jos<tspan
   id="tspan5664"
   style="fill:#00ae00;fill-opacity:0.90506329">V</tspan>ic</tspan></text>
    </g>
    <text
       xml:space="preserve"
       style="font-style:normal;font-weight:normal;font-size:40px;line-height:125%;font-family:sans-serif;letter-spacing:0px;word-spacing:0px;fill:#000000;fill-opacity:1;stroke:none;stroke-width:1px;stroke-linecap:butt;stroke-linejoin:miter;stroke-opacity:1"
       x="102.85714"
       y="127.3622"
       id="text3340"
       sodipodi:linespacing="125%"><tspan
         sodipodi:role="line"
         id="tspan3342"
         x="102.85714"
         y="127.3622" /></text>
    <flowRoot
       xml:space="preserve"
       id="flowRoot5656"
       style="font-style:normal;font-weight:normal;font-size:40px;line-height:125%;font-family:sans-serif;letter-spacing:0px;word-spacing:0px;fill:#000000;fill-opacity:1;stroke:none;stroke-width:1px;stroke-linecap:butt;stroke-linejoin:miter;stroke-opacity:1"><flowRegion
         id="flowRegion5658"><rect
           id="rect5660"
           width="125"
           height="71.428574"
           x="90"
           y="203.79077" /></flowRegion><flowPara
         id="flowPara5662"></flowPara></flowRoot>  </g>
</svg>
